#!OML:ASF H:\Terrain\Walking\May29\JustinRory\rory.ASF
:FULLY-SPECIFIED
:DEGREES
390
root 2.66858 18.1694 10.2793 -11.0855 -47.5256 21.3984
lowerback 10.2913 -5.25397 3.54356
upperback 5.90537 -6.89679 8.11721
thorax 1.09091 -3.63575 7.17122
lowerneck -7.54991 5.4673 7.21755
upperneck 31.7679 9.42513 -12.378
head 12.7626 3.45093 -4.86025
rclavicle -4.6118e-014 6.04305e-014
rhumerus -54.7297 -27.5126 -22.9591
rradius 27.7533
rwrist -0.997439
rhand -17.0436 28.9424
rfingers 7.12502
rthumb 9.19331 -0.837169
lclavicle -4.6118e-014 6.04305e-014
lhumerus -40.0363 -5.06209 81.1394
lradius 60.5943
lwrist 6.53386
lhand -4.57122 15.0998
lfingers 7.12502
lthumb 21.2053 43.96
rfemur -34.088 6.72278 11.1131
rtibia 38.7838
rfoot -4.56808 -6.65068
rtoes 17.7916
lfemur -9.53646 20.2558 -30.3109
ltibia 48.2496
lfoot 25.3469 -13.9859
ltoes 5.62242
391
root 2.60325 18.1656 10.4463 -10.8658 -47.7171 21.1091
lowerback 10.5957 -5.266 3.61806
upperback 6.12264 -6.90599 8.0737
thorax 1.14364 -3.64337 7.10577
lowerneck -7.64775 5.39459 7.09373
upperneck 31.89 9.2393 -12.0514
head 12.7831 3.38162 -4.73661
rclavicle -1.04958e-013 3.18055e-015
rhumerus -54.8394 -28.4005 -23.0359
rradius 26.7929
rwrist 0.0428226
rhand -17.3735 27.8609
rfingers 7.12502
rthumb 8.87496 -1.93245
lclavicle -1.04958e-013 3.18055e-015
lhumerus -39.7512 -4.5543 81.1176
lradius 60.0505
lwrist 5.96281
lhand -4.30369 16.086
lfingers 7.12502
lthumb 21.4623 44.917
rfemur -33.9214 6.24897 11.2054
rtibia 39.6221
rfoot -5.94399 -6.16302
rtoes 18.4432
lfemur -10.77 20.2537 -29.653
ltibia 50.3217
lfoot 26.2054 -15.4131
ltoes -5.04168
392
root 2.53896 18.1556 10.6125 -10.9375 -47.2002 21.0659
lowerback 10.9528 -5.49882 3.40464
upperback 6.27679 -7.21422 7.91515
thorax 1.14862 -3.80286 7.11282
lowerneck -7.54376 5.30581 7.0414
upperneck 31.8976 9.00159 -11.6956
head 12.7075 3.31061 -4.61911
rclavicle 2.54444e-014 -3.81667e-014
rhumerus -54.9997 -28.7638 -23.6703
rradius 26.0999
rwrist 1.10208
rhand -17.9569 26.6759
rfingers 7.12502
rthumb 8.3119 -3.14055
lclavicle 2.54444e-014 -3.81667e-014
lhumerus -39.5424 -4.38434 80.9526
lradius 59.5803
lwrist 5.30076
lhand -4.07776 17.1797
lfingers 7.12502
lthumb 21.6793 45.9859
rfemur -33.5464 5.14181 10.9813
rtibia 40.4789
rfoot -7.16278 -5.78515
rtoes 17.6744
lfemur -11.8267 19.5877 -29.3238
ltibia 52.2626
lfoot 25.8382 -16.5144
ltoes -6.59206
393
root 2.4783 18.1495 10.7784 -11.3243 -46.5144 21.3225
lowerback 11.3543 -5.75292 2.9652
upperback 6.43276 -7.56869 7.70913
thorax 1.1593 -3.9914 7.20521
lowerneck -7.5808 5.16795 6.83028
upperneck 32.0956 8.72146 -11.3146
head 12.7299 3.1939 -4.47651
rclavicle 5.08889e-014 -5.725e-014
rhumerus -55.2586 -29.4836 -24.2008
rradius 25.6685
rwrist 2.37303
rhand -18.5933 25.9148
rfingers 7.12502
rthumb 7.69771 -3.92511
lclavicle 5.08889e-014 -5.725e-014
lhumerus -39.1759 -4.38533 80.8058
lradius 58.8817
lwrist 4.30904
lhand -3.67728 16.9288
lfingers 7.12502
lthumb 22.0638 45.6901
rfemur -33.0127 4.22351 10.4405
rtibia 41.2784
rfoot -8.20147 -5.52772
rtoes 17.6729
lfemur -12.7574 18.878 -29.2623
ltibia 54.0849
lfoot 24.0128 -17.2043
ltoes -9.86353
394
root 2.42523 18.1419 10.9315 -11.4928 -46.0473 21.5576
lowerback 11.691 -5.87471 2.5076
upperback 6.52791 -7.75293 7.55934
thorax 1.13599 -4.09573 7.35005
lowerneck -7.76603 4.98677 6.38577
upperneck 32.4272 8.39064 -10.8085
head 12.8191 3.03323 -4.25265
rclavicle -2.8625e-014 3.81667e-014
rhumerus -55.8442 -31.1998 -23.7728
rradius 25.2164
rwrist 4.17646
rhand -18.4823 25.0014
rfingers 7.12502
rthumb 7.80486 -4.83458
lclavicle -2.8625e-014 3.81667e-014
lhumerus -38.5187 -4.18611 80.7398
lradius 57.8024
lwrist 2.91041
lhand -2.81052 16.3432
lfingers 7.12502
lthumb 22.8958 45.0039
rfemur -32.7433 4.03252 9.84519
rtibia 41.8863
rfoot -8.87259 -5.99055
rtoes 17.2443
lfemur -14.0646 18.3073 -29.2406
ltibia 55.8012
lfoot 21.666 -17.1663
ltoes -12.6814
395
root 2.37334 18.1444 11.0863 -10.8203 -45.7489 20.892
lowerback 11.8673 -5.98077 2.71507
upperback 6.53265 -7.85784 7.60328
thorax 1.03842 -4.14243 7.31475
lowerneck -7.60641 4.82234 5.88258
upperneck 32.5201 8.07358 -10.2481
head 12.7323 2.89564 -3.98855
rclavicle 0 -2.8625e-014
rhumerus -56.2822 -32.7585 -23.2379
rradius 24.3651
rwrist 5.79675
rhand -18.2763 24.0725
rfingers 7.12502
rthumb 8.00369 -5.75591
lclavicle 0 -2.8625e-014
lhumerus -37.9331 -3.82557 80.7759
lradius 56.7919
lwrist 1.43703
lhand -2.35123 16.0425
lfingers 7.12502
lthumb 23.3365 44.6479
rfemur -32.5065 4.07919 9.92521
rtibia 42.2629
rfoot -9.5317 -6.68992
rtoes 16.305
lfemur -15.6306 17.7198 -28.5563
ltibia 57.3756
lfoot 18.8603 -16.9187
ltoes -15.9774
396
root 2.31365 18.1731 11.2665 -10.2983 -45.3757 20.2336
lowerback 11.9704 -6.06467 3.06581
upperback 6.56643 -7.92345 7.54846
thorax 0.971106 -4.16104 7.07968
lowerneck -7.28545 4.62104 5.81351
upperneck 32.5288 7.68074 -9.89632
head 12.6015 2.76024 -3.89492
rclavicle -6.36111e-015 -3.18055e-015
rhumerus -56.8824 -34.3239 -22.7656
rradius 23.4408
rwrist 7.0818
rhand -17.7945 23.365
rfingers 7.12502
rthumb 8.46867 -6.44516
lclavicle -6.36111e-015 -3.18055e-015
lhumerus -37.3736 -3.79542 80.7983
lradius 55.924
lwrist -0.123989
lhand -1.69134 16.3052
lfingers 7.12502
lthumb 23.9694 44.8289
rfemur -31.7944 3.78741 10.0385
rtibia 42.4099
rfoot -10.2753 -6.96117
rtoes 16.1527
lfemur -16.786 17.0166 -27.7948
ltibia 58.633
lfoot 14.9593 -17.1668
ltoes -22.9167
397
root 2.25254 18.1992 11.4384 -9.99077 -45.1881 19.959
lowerback 12.0742 -6.06967 3.02384
upperback 6.6123 -7.92445 7.39368
thorax 0.944719 -4.157 6.94687
lowerneck -7.33259 4.43339 5.89938
upperneck 32.8471 7.28604 -9.55438
head 12.6906 2.62325 -3.84088
rclavicle 8.42847e-014 -9.22361e-014
rhumerus -57.4139 -35.5679 -22.6883
rradius 22.8415
rwrist 7.96446
rhand -16.9081 22.5254
rfingers 7.12502
rthumb 9.32401 -7.24841
lclavicle 8.42847e-014 -9.22361e-014
lhumerus -36.7351 -3.79216 80.6363
lradius 55.0501
lwrist -1.95896
lhand 0.19743 16.9247
lfingers 7.12502
lthumb 25.7795 45.1981
rfemur -31.2252 3.80794 9.90754
rtibia 42.369
rfoot -10.8094 -7.24967
rtoes 16.7984
lfemur -17.992 16.5605 -27.3135
ltibia 59.5374
lfoot 11.5554 -16.5137
ltoes -28.1065
398
root 2.18232 18.2179 11.5998 -9.50425 -45.3095 19.5898
lowerback 12.0151 -6.11899 2.85415
upperback 6.69789 -8.02117 7.33533
thorax 1.09109 -4.21273 6.97364
lowerneck -7.54336 4.39016 5.5157
upperneck 33.2437 7.13099 -9.02689
head 12.8488 2.55001 -3.59736
rclavicle 9.54166e-015 0
rhumerus -57.2155 -36.3907 -23.393
rradius 22.1572
rwrist 9.46129
rhand -18.2299 21.3631
rfingers 7.12502
rthumb 8.04844 -8.4637
lclavicle 9.54166e-015 0
lhumerus -36.3407 -3.52004 80.3801
lradius 54.4439
lwrist -3.56267
lhand 2.62925 17.2094
lfingers 7.12502
lthumb 28.1062 45.1233
rfemur -30.8597 4.50806 9.83581
rtibia 42.2688
rfoot -11.3619 -7.71546
rtoes 18.7659
lfemur -19.2525 16.4779 -26.726
ltibia 60.0513
lfoot 9.87613 -14.4758
ltoes -27.0421
399
root 2.10417 18.2518 11.7768 -9.37384 -45.3641 19.4875
lowerback 11.9563 -6.22447 2.54996
upperback 6.81984 -8.20814 7.19957
thorax 1.29191 -4.31721 6.99705
lowerneck -7.63405 4.40656 5.08477
upperneck 33.582 7.10541 -8.61378
head 12.9748 2.51871 -3.37196
rclavicle -7.95139e-015 0
rhumerus -57.0461 -37.3098 -24.1014
rradius 21.5679
rwrist 12.1248
rhand -18.3017 21.7276
rfingers 7.12502
rthumb 7.9792 -8.10175
lclavicle -7.95139e-015 0
lhumerus -35.9551 -3.07683 80.0957
lradius 53.846
lwrist -5.195
lhand 4.55664 17.6038
lfingers 7.12502
lthumb 29.947 45.2007
rfemur -30.1007 5.11264 9.56702
rtibia 42.16
rfoot -12.0764 -8.21817
rtoes 19.3217
lfemur -20.052 16.1001 -26.2197
ltibia 60.1822
lfoot 8.37144 -12.4046
ltoes -22.8087
400
root 2.04392 18.2845 11.9545 -9.22519 -45.5417 19.3442
lowerback 12.1354 -6.11064 2.49974
upperback 6.84442 -8.04375 6.95048
thorax 1.16948 -4.22557 6.76395
lowerneck -7.488 4.29946 5.2947
upperneck 33.869 6.87479 -8.52207
head 13.0496 2.44779 -3.4182
rclavicle -6.36111e-014 -8.5875e-014
rhumerus -57.063 -37.2029 -25.2832
rradius 21.5943
rwrist 12.8692
rhand -14.8079 23.2842
rfingers 7.12502
rthumb 11.35 -6.38861
lclavicle -6.36111e-014 -8.5875e-014
lhumerus -35.273 -2.84683 79.825
lradius 52.9932
lwrist -7.65588
lhand 5.04147 17.9479
lfingers 7.12502
lthumb 30.4095 45.4602
rfemur -29.4087 5.62499 9.42057
rtibia 42.0157
rfoot -12.5219 -8.76399
rtoes 17.8079
lfemur -20.7898 15.8029 -25.7419
ltibia 60.0121
lfoot 6.07026 -11.2383
ltoes -22.4089
401
root 1.99343 18.3085 12.135 -8.67416 -45.8196 18.9016
lowerback 12.1834 -5.86741 2.79892
upperback 6.78735 -7.67252 6.734
thorax 0.970787 -4.01617 6.34127
lowerneck -7.25087 4.06608 5.62808
upperneck 34.0644 6.43519 -8.42093
head 13.0484 2.30752 -3.50817
rclavicle 1.90833e-014 -6.67916e-014
rhumerus -57.3447 -36.9612 -26.4969
rradius 22.0572
rwrist 12.3232
rhand -11.437 22.9242
rfingers 7.12502
rthumb 14.5995 -6.54196
lclavicle 1.90833e-014 -6.67916e-014
lhumerus -34.6552 -2.91611 79.667
lradius 52.3527
lwrist -10.2206
lhand 5.87019 17.9267
lfingers 7.12502
lthumb 31.1996 45.2899
rfemur -29.0065 6.16824 9.50021
rtibia 41.8136
rfoot -12.588 -9.30977
rtoes 16.4736
lfemur -21.7081 15.7596 -25.2198
ltibia 59.5414
lfoot 3.63042 -10.416
ltoes -24.1541
402
root 1.93876 18.3365 12.3213 -8.23528 -45.9468 18.6533
lowerback 12.1305 -5.88793 2.83559
upperback 6.70908 -7.68647 6.59651
thorax 0.890368 -4.0137 6.17484
lowerneck -7.09384 4.00756 5.09202
upperneck 34.2904 6.28003 -7.8906
head 13.0559 2.22812 -3.2318
rclavicle -1.19271e-013 5.40694e-014
rhumerus -57.4589 -37.7313 -27.3432
rradius 22.4628
rwrist 13.6626
rhand -9.1001 22.4184
rfingers 7.12502
rthumb 16.8501 -6.87051
lclavicle -1.19271e-013 5.40694e-014
lhumerus -34.4553 -2.37675 79.5231
lradius 52.071
lwrist -11.9762
lhand 7.45539 17.9494
lfingers 7.12502
lthumb 32.7091 45.0106
rfemur -28.5554 6.44104 9.42652
rtibia 41.579
rfoot -12.4745 -10.0152
rtoes 11.9658
lfemur -22.5804 15.4344 -24.8423
ltibia 58.7943
lfoot 1.76603 -9.33098
ltoes -21.5606
403
root 1.88684 18.3705 12.5153 -8.05017 -46.088 18.7176
lowerback 12.0285 -6.04306 2.72566
upperback 6.69641 -7.90284 6.3554
thorax 0.92688 -4.11624 5.98935
lowerneck -7.19734 4.09189 4.54307
upperneck 34.5305 6.36847 -7.47224
head 13.1537 2.2339 -2.96288
rclavicle 1.90833e-014 3.18055e-015
rhumerus -54.7113 -35.0626 -31.6546
rradius 22.587
rwrist 11.6677
rhand -6.99339 22.5218
rfingers 7.12502
rthumb 18.8772 -6.58221
lclavicle 1.90833e-014 3.18055e-015
lhumerus -34.2767 -1.64951 79.1753
lradius 51.8341
lwrist -13.2591
lhand 8.69584 18.0951
lfingers 7.12502
lthumb 33.8884 44.9035
rfemur -28.0834 6.626 9.04032
rtibia 41.3501
rfoot -12.6808 -10.3517
rtoes 8.68781
lfemur -23.3089 14.9848 -24.7046
ltibia 57.7979
lfoot 0.242811 -8.4262
ltoes -18.0582
